<svg xmlns="http://www.w3.org/2000/svg" width="148" height="22" viewBox="0 0 148 22">
    <defs>
        <linearGradient id="a" x1="-9.126%" x2="108.568%" y1="82.969%" y2="15.723%">
            <stop offset="1.903%" stop-color="#0054CA"/>
            <stop offset="21.59%" stop-color="#0154C0"/>
            <stop offset="54.91%" stop-color="#0553A6"/>
            <stop offset="97.56%" stop-color="#0B517B"/>
            <stop offset="100%" stop-color="#0B5178"/>
        </linearGradient>
        <linearGradient id="b" x1="-82.966%" x2="291.928%" y1="179.282%" y2="-187.089%">
            <stop offset="0%" stop-color="#255AFF"/>
            <stop offset="100%" stop-color="#008A00"/>
        </linearGradient>
        <linearGradient id="c" x1="-5.142%" x2="105.165%" y1="62.428%" y2="38.245%">
            <stop offset="0%" stop-color="#1A5D6D"/>
            <stop offset="100%" stop-color="#145E20"/>
        </linearGradient>
        <linearGradient id="d" x1="-13.66%" x2="149.717%" y1="144.424%" y2="-98.699%">
            <stop offset="0%" stop-color="#255AFF"/>
            <stop offset="100%" stop-color="#008A00"/>
        </linearGradient>
        <linearGradient id="e" x1=".043%" x2="99.848%" y1="48.998%" y2="48.998%">
            <stop offset="0%" stop-color="#3A8C9C"/>
            <stop offset="31.62%" stop-color="#409694"/>
            <stop offset="68.83%" stop-color="#449D8E"/>
        </linearGradient>
        <linearGradient id="f" x1="-52.833%" x2="123.588%" y1="97.156%" y2="16.022%">
            <stop offset="0%" stop-color="#255AFF"/>
            <stop offset="30.39%" stop-color="#2E7DC4"/>
            <stop offset="62.9%" stop-color="#379F8B"/>
            <stop offset="87.08%" stop-color="#3CB467"/>
            <stop offset="100%" stop-color="#3EBC5A"/>
        </linearGradient>
        <linearGradient id="g" x1="20.028%" x2="80.039%" y1="75.918%" y2="22.982%">
            <stop offset="0%" stop-color="#389D80"/>
            <stop offset="12.27%" stop-color="#38A373"/>
            <stop offset="36.95%" stop-color="#38AC5E"/>
            <stop offset="53.13%" stop-color="#38AF56"/>
            <stop offset="100%" stop-color="#3EBC5A"/>
        </linearGradient>
        <linearGradient id="h" x1="44.858%" x2="55.281%" y1="58.627%" y2="40.273%">
            <stop offset="0%" stop-color="#136F4E"/>
            <stop offset="100%" stop-color="#187C2D"/>
        </linearGradient>
    </defs>
    <g fill="none" fill-rule="evenodd">
        <path fill="#373848" d="M52.412 21.23h-.663c-.11 0-.221-.11-.221-.22V6.82c0-.22.11-.22.221-.22h7.077c.22 0 .22.11.22.22v.55c0 .22-.11.22-.22.22h-5.971c-.11 0-.221.11-.221.22v5.61c0 .11.11.22.22.22h5.308c.221 0 .221.11.221.22v.44c0 .22-.11.22-.22.22h-5.308c-.11 0-.221.11-.221.22v6.27c0 .11-.111.22-.222.22zM62.917 21.23h-.663c-.111 0-.222-.11-.222-.22V6.82c0-.22.111-.22.222-.22h5.197c.995 0 1.769.33 2.322.88.663.44.995 1.32.995 2.31v2.2c0 .88-.221 1.54-.664 2.09-.442.55-.995.88-1.769 1.1v.11l2.765 5.72c.11.22 0 .22-.111.22h-.663c-.222 0-.332-.11-.443-.22l-2.764-5.72h-3.65c-.11 0-.22.11-.22.22v5.61c-.11 0-.11.11-.332.11zm.553-7.04h3.98c.664 0 1.217-.22 1.66-.55.33-.44.552-.99.552-1.65v-2.2c0-.77-.221-1.32-.553-1.65-.442-.44-.995-.55-1.658-.55H63.47c-.11 0-.221.11-.221.22v6.27c-.11.11 0 .11.22.11zM81.715 21.23h-7.077c-.11 0-.221-.11-.221-.22V6.82c0-.22.11-.22.22-.22h7.078c.22 0 .22.11.22.22v.55c0 .22-.11.22-.22.22h-5.971c-.11 0-.221.11-.221.22v5.28c0 .11.11.22.22.22h5.308c.221 0 .221.11.221.22v.55c0 .22-.11.22-.22.22h-5.308c-.11 0-.221.11-.221.22v5.5c0 .11.11.22.22.22h5.972c.22 0 .22.11.22.22v.55c0 .11-.11.22-.22.22zM86.69 6.82v14.19c0 .22-.11.22-.22.22h-.664c-.11 0-.221-.11-.221-.22V6.82c0-.22.11-.22.221-.22h.663c.111-.11.222 0 .222.22zM96.2 21.23h-2.543c-.995 0-1.77-.33-2.322-.88-.553-.55-.885-1.32-.885-2.42V9.79c0-.99.332-1.76.885-2.42.553-.55 1.327-.88 2.322-.88H96.2c.995 0 1.77.33 2.322.88.664.55.995 1.43.995 2.42v.99c0 .22-.11.22-.22.22h-.664c-.222 0-.222-.11-.222-.22v-.99c0-.77-.22-1.32-.552-1.65-.332-.44-.885-.55-1.659-.55h-2.322c-.664 0-1.216.22-1.659.55-.331.44-.553.99-.553 1.65v8.14c0 .77.222 1.32.553 1.65.332.44.885.55 1.659.55H96.2c.663 0 1.216-.22 1.659-.55.331-.44.552-.99.552-1.65v-2.97c0-.11-.11-.22-.22-.22h-2.654c-.222 0-.222-.11-.222-.22v-.55c0-.22.111-.22.222-.22h3.649c.331 0 .442.11.442.44v3.85c0 .99-.332 1.76-.885 2.42-.774.44-1.548.77-2.543.77zM104.05 21.23h-.663c-.11 0-.22-.11-.22-.22V6.82c0-.22.11-.22.22-.22h.664c.221 0 .221.11.221.22v6.27c0 .11.11.22.221.22h6.413c.111 0 .222-.11.222-.22V6.82c0-.22.11-.22.22-.22h.664c.221 0 .221.11.221.22v14.19c0 .22-.11.22-.22.22h-.664c-.11 0-.221-.11-.221-.22v-6.49c0-.11-.111-.22-.222-.22h-6.413c-.11 0-.221.11-.221.22v6.49c0 .11-.11.22-.221.22zM119.531 21.23h-.663c-.221 0-.221-.11-.221-.22V7.7c0-.11-.11-.22-.221-.22h-3.318c-.22 0-.22-.11-.22-.22v-.55c0-.22.11-.22.22-.22h8.293c.222 0 .222.11.222.22v.55c0 .22-.111.22-.222.22h-3.317c-.11 0-.221.11-.221.22v13.2c-.11.22-.221.33-.332.33zM131.805 21.23h-2.875c-.995 0-1.77-.33-2.322-.88-.553-.55-.885-1.32-.885-2.42V9.79c0-.99.332-1.76.885-2.42.553-.55 1.327-.88 2.322-.88h2.875c.995 0 1.77.33 2.322.88.553.55.885 1.32.885 2.42v8.25c0 .99-.332 1.76-.885 2.42-.553.44-1.327.77-2.322.77zm-2.764-.99h2.653c.664 0 1.217-.22 1.66-.55.33-.44.552-.99.552-1.65V9.79c0-.77-.221-1.32-.553-1.65-.332-.44-.884-.55-1.659-.55h-2.653c-.664 0-1.217.22-1.659.55-.332.44-.553.99-.553 1.65v8.14c0 .77.221 1.32.553 1.65.442.44.885.66 1.659.66zM138.55 18.04v-.77c0-.22.11-.22.221-.22h.664c.22 0 .22.11.22.22v.77c0 1.54.775 2.31 2.212 2.31h2.433c1.437 0 2.212-.77 2.212-2.31v-.99c0-.66-.222-1.21-.885-1.54-.553-.33-1.216-.66-1.99-.77-.774-.22-1.548-.33-2.323-.55-.774-.22-1.437-.55-1.99-.99-.553-.44-.774-1.1-.774-1.98V9.79c0-.99.332-1.76.885-2.42.553-.55 1.327-.88 2.322-.88h2.654c.995 0 1.769.33 2.322.88.553.55.884 1.32.884 2.42v.66c0 .22-.11.22-.22.22h-.664c-.221 0-.221-.11-.221-.22v-.66c0-1.54-.775-2.31-2.212-2.31h-2.322c-1.438 0-2.212.77-2.212 2.31v1.1c0 1.1.996 1.76 2.875 2.09.774.11 1.548.33 2.322.55.774.22 1.438.55 1.99 1.1.554.55.775 1.21.775 2.09v1.1c0 .99-.332 1.76-.885 2.42-.553.55-1.327.88-2.322.88h-2.764c-.995 0-1.77-.33-2.322-.88-.553-.44-.885-1.21-.885-2.2z"/>
        <path fill="url(#a)" d="M.553 11.66h9.73v9.68H.553z"/>
        <path fill="url(#b)" d="M.553.66h9.731v9.68H.553z"/>
        <path fill="url(#c)" d="M22.447 3.63h9.73v6.6h-9.73z"/>
        <path fill="url(#d)" d="M11.5 6.6h9.73v14.74H11.5z"/>
        <path fill="url(#e)" d="M11.5.66h9.73V5.5H11.5z"/>
        <path fill="url(#f)" d="M22.447 11.66h20.677v9.68H22.447z"/>
        <path fill="url(#g)" d="M36.821.66h6.303v9.68h-6.303z"/>
        <path fill="url(#h)" d="M33.394.66h1.99v9.68h-1.99z"/>
    </g>
</svg>
